<svg width="19" height="20" viewBox="0 0 19 20" fill="none" xmlns="http://www.w3.org/2000/svg">
<path d="M3.52377 5C7.41427 3.74386 11.9724 3.45573 14 3.5C16.0276 3.54427 16.8831 4.2663 17.5 5.5C18.5 7.5 18.289 12.4881 16.5 14.0871C14.712 15.6861 7.33015 15.8381 4.87015 14.0871C2.27115 12.2361 3.629 7.192 3.544 3.743C3.595 1.813 1.5 1.5 1.5 1.5" stroke="white" stroke-width="1.5" stroke-linecap="round" stroke-linejoin="round"/>
<path d="M11 8.5H13.773" stroke="white" stroke-width="1.5" stroke-linecap="round" stroke-linejoin="round"/>
<path fill-rule="evenodd" clip-rule="evenodd" d="M5.26375 18.127C5.56375 18.127 5.80775 18.371 5.80775 18.671C5.80775 18.972 5.56375 19.216 5.26375 19.216C4.96275 19.216 4.71875 18.972 4.71875 18.671C4.71875 18.371 4.96275 18.127 5.26375 18.127Z" fill="white" stroke="white" stroke-width="1.5" stroke-linecap="round" stroke-linejoin="round"/>
<path fill-rule="evenodd" clip-rule="evenodd" d="M15.5953 18.127C15.8963 18.127 16.1403 18.371 16.1403 18.671C16.1403 18.972 15.8963 19.216 15.5953 19.216C15.2953 19.216 15.0513 18.972 15.0513 18.671C15.0513 18.371 15.2953 18.127 15.5953 18.127Z" fill="white" stroke="white" stroke-width="1.5" stroke-linecap="round" stroke-linejoin="round"/>
</svg>
