<svg width="22" height="22" viewBox="0 0 22 22" fill="none" xmlns="http://www.w3.org/2000/svg">
<path fill-rule="evenodd" clip-rule="evenodd" d="M9.59165 11.0009C9.59165 12.0997 8.70124 12.9901 7.60247 12.9901C6.50369 12.9901 5.61328 12.0997 5.61328 11.0009C5.61328 9.90213 6.50369 9.01172 7.60247 9.01172H7.60569C8.70339 9.01279 9.59165 9.9032 9.59165 11.0009Z" stroke="white" stroke-width="1.5" stroke-linecap="round" stroke-linejoin="round"/>
<path d="M9.59497 11.001H16.381V12.9902" stroke="white" stroke-width="1.5" stroke-linecap="round" stroke-linejoin="round"/>
<path d="M13.3437 12.9902V11.001" stroke="white" stroke-width="1.5" stroke-linecap="round" stroke-linejoin="round"/>
<path fill-rule="evenodd" clip-rule="evenodd" d="M1.0647 11.0006C1.0647 3.54976 3.54903 1.06543 10.9999 1.06543C18.4507 1.06543 20.9351 3.54976 20.9351 11.0006C20.9351 18.4515 18.4507 20.9358 10.9999 20.9358C3.54903 20.9358 1.0647 18.4515 1.0647 11.0006Z" stroke="white" stroke-width="1.5" stroke-linecap="round" stroke-linejoin="round"/>
</svg>
