<svg width="16" height="12" viewBox="0 0 16 12" fill="none" xmlns="http://www.w3.org/2000/svg">
<path d="M11.3332 0.666992C12.394 0.666992 13.4115 1.08842 14.1616 1.83857C14.9117 2.58871 15.3332 3.60613 15.3332 4.66699V7.33366C15.3332 8.39452 14.9117 9.41194 14.1616 10.1621C13.4115 10.9122 12.394 11.3337 11.3332 11.3337H4.6665C3.60564 11.3337 2.58822 10.9122 1.83808 10.1621C1.08793 9.41194 0.666504 8.39452 0.666504 7.33366V4.66699C0.666504 3.60613 1.08793 2.58871 1.83808 1.83857C2.58822 1.08842 3.60564 0.666992 4.6665 0.666992H11.3332ZM6.6665 4.00033H5.33317V5.33366H3.99984V6.66699H5.3325L5.33317 8.00033H6.6665L6.66584 6.66699H7.99984V5.33366H6.6665V4.00033ZM11.9998 6.66699H10.6665V8.00033H11.9998V6.66699ZM10.6665 4.00033H9.33317V5.33366H10.6665V4.00033Z" fill="white"/>
</svg>
